<?xml version="1.0" encoding="UTF-8" standalone="no"?>
<!DOCTYPE svg PUBLIC "-//W3C//DTD SVG 1.1//EN"
 "http://www.w3.org/Graphics/SVG/1.1/DTD/svg11.dtd">
<!-- Generated by graphviz version 2.43.0 (0)
 -->
<!-- Title: %3 Pages: 1 -->
<svg width="1784pt" height="476pt"
 viewBox="0.00 0.00 1783.95 476.00" xmlns="http://www.w3.org/2000/svg" xmlns:xlink="http://www.w3.org/1999/xlink">
<g id="graph0" class="graph" transform="scale(1 1) rotate(0) translate(4 472)">
<title>%3</title>
<polygon fill="white" stroke="transparent" points="-4,4 -4,-472 1779.95,-472 1779.95,4 -4,4"/>
<!-- [root] module.servers.aws_dynamodb_table.dynamo&#45;terraform&#45;state&#45;lock (expand) -->
<g id="node1" class="node">
<title>[root] module.servers.aws_dynamodb_table.dynamo&#45;terraform&#45;state&#45;lock (expand)</title>
<polygon fill="none" stroke="black" points="573.32,-180 82.32,-180 82.32,-144 573.32,-144 573.32,-180"/>
<text text-anchor="middle" x="327.82" y="-158.3" font-family="Times,serif" font-size="14.00">module.servers.aws_dynamodb_table.dynamo&#45;terraform&#45;state&#45;lock</text>
</g>
<!-- [root] provider[&quot;registry.terraform.io/hashicorp/aws&quot;].east2 -->
<g id="node7" class="node">
<title>[root] provider[&quot;registry.terraform.io/hashicorp/aws&quot;].east2</title>
<polygon fill="none" stroke="black" points="365.82,-36 0.18,-18 365.82,0 731.47,-18 365.82,-36"/>
<text text-anchor="middle" x="365.82" y="-14.3" font-family="Times,serif" font-size="14.00">provider[&quot;registry.terraform.io/hashicorp/aws&quot;].east2</text>
</g>
<!-- [root] module.servers.aws_dynamodb_table.dynamo&#45;terraform&#45;state&#45;lock (expand)&#45;&gt;[root] provider[&quot;registry.terraform.io/hashicorp/aws&quot;].east2 -->
<g id="edge10" class="edge">
<title>[root] module.servers.aws_dynamodb_table.dynamo&#45;terraform&#45;state&#45;lock (expand)&#45;&gt;[root] provider[&quot;registry.terraform.io/hashicorp/aws&quot;].east2</title>
<path fill="none" stroke="black" d="M332.41,-143.87C338.91,-119.56 350.89,-74.82 358.6,-46.01"/>
<polygon fill="black" stroke="black" points="362.02,-46.75 361.22,-36.19 355.26,-44.94 362.02,-46.75"/>
</g>
<!-- [root] module.servers (expand) -->
<g id="node13" class="node">
<title>[root] module.servers (expand)</title>
<ellipse fill="none" stroke="black" cx="910.82" cy="-18" rx="154.87" ry="18"/>
<text text-anchor="middle" x="910.82" y="-14.3" font-family="Times,serif" font-size="14.00">[root] module.servers (expand)</text>
</g>
<!-- [root] module.servers.aws_dynamodb_table.dynamo&#45;terraform&#45;state&#45;lock (expand)&#45;&gt;[root] module.servers (expand) -->
<g id="edge9" class="edge">
<title>[root] module.servers.aws_dynamodb_table.dynamo&#45;terraform&#45;state&#45;lock (expand)&#45;&gt;[root] module.servers (expand)</title>
<path fill="none" stroke="black" d="M367.05,-143.91C414.47,-123.89 497.09,-91.05 570.82,-72 642.62,-53.45 724.73,-40.43 790.27,-31.93"/>
<polygon fill="black" stroke="black" points="790.75,-35.4 800.23,-30.66 789.86,-28.46 790.75,-35.4"/>
</g>
<!-- [root] module.servers.aws_eip.ip (expand) -->
<g id="node2" class="node">
<title>[root] module.servers.aws_eip.ip (expand)</title>
<polygon fill="none" stroke="black" points="1019.82,-252 813.82,-252 813.82,-216 1019.82,-216 1019.82,-252"/>
<text text-anchor="middle" x="916.82" y="-230.3" font-family="Times,serif" font-size="14.00">module.servers.aws_eip.ip</text>
</g>
<!-- [root] module.servers.aws_instance.web (expand) -->
<g id="node3" class="node">
<title>[root] module.servers.aws_instance.web (expand)</title>
<polygon fill="none" stroke="black" points="851.82,-180 591.82,-180 591.82,-144 851.82,-144 851.82,-180"/>
<text text-anchor="middle" x="721.82" y="-158.3" font-family="Times,serif" font-size="14.00">module.servers.aws_instance.web</text>
</g>
<!-- [root] module.servers.aws_eip.ip (expand)&#45;&gt;[root] module.servers.aws_instance.web (expand) -->
<g id="edge11" class="edge">
<title>[root] module.servers.aws_eip.ip (expand)&#45;&gt;[root] module.servers.aws_instance.web (expand)</title>
<path fill="none" stroke="black" d="M869.12,-215.88C841.87,-206.09 807.53,-193.77 778.86,-183.47"/>
<polygon fill="black" stroke="black" points="779.97,-180.15 769.37,-180.07 777.6,-186.74 779.97,-180.15"/>
</g>
<!-- [root] module.servers.data.aws_ami.ubuntu (expand) -->
<g id="node5" class="node">
<title>[root] module.servers.data.aws_ami.ubuntu (expand)</title>
<polygon fill="none" stroke="black" points="863.82,-108 579.82,-108 579.82,-72 863.82,-72 863.82,-108"/>
<text text-anchor="middle" x="721.82" y="-86.3" font-family="Times,serif" font-size="14.00">module.servers.data.aws_ami.ubuntu</text>
</g>
<!-- [root] module.servers.aws_instance.web (expand)&#45;&gt;[root] module.servers.data.aws_ami.ubuntu (expand) -->
<g id="edge12" class="edge">
<title>[root] module.servers.aws_instance.web (expand)&#45;&gt;[root] module.servers.data.aws_ami.ubuntu (expand)</title>
<path fill="none" stroke="black" d="M721.82,-143.7C721.82,-135.98 721.82,-126.71 721.82,-118.11"/>
<polygon fill="black" stroke="black" points="725.32,-118.1 721.82,-108.1 718.32,-118.1 725.32,-118.1"/>
</g>
<!-- [root] module.servers.aws_instance.web2 (expand) -->
<g id="node4" class="node">
<title>[root] module.servers.aws_instance.web2 (expand)</title>
<polygon fill="none" stroke="black" points="795.32,-252 526.32,-252 526.32,-216 795.32,-216 795.32,-252"/>
<text text-anchor="middle" x="660.82" y="-230.3" font-family="Times,serif" font-size="14.00">module.servers.aws_instance.web2</text>
</g>
<!-- [root] module.servers.aws_instance.web2 (expand)&#45;&gt;[root] module.servers.aws_instance.web (expand) -->
<g id="edge13" class="edge">
<title>[root] module.servers.aws_instance.web2 (expand)&#45;&gt;[root] module.servers.aws_instance.web (expand)</title>
<path fill="none" stroke="black" d="M675.9,-215.7C683.22,-207.3 692.13,-197.07 700.16,-187.86"/>
<polygon fill="black" stroke="black" points="702.99,-189.94 706.92,-180.1 697.71,-185.34 702.99,-189.94"/>
</g>
<!-- [root] module.servers.data.aws_ami.ubuntu (expand)&#45;&gt;[root] provider[&quot;registry.terraform.io/hashicorp/aws&quot;].east2 -->
<g id="edge15" class="edge">
<title>[root] module.servers.data.aws_ami.ubuntu (expand)&#45;&gt;[root] provider[&quot;registry.terraform.io/hashicorp/aws&quot;].east2</title>
<path fill="none" stroke="black" d="M635.19,-71.97C577.24,-60.57 501.55,-45.69 445.17,-34.6"/>
<polygon fill="black" stroke="black" points="445.72,-31.14 435.23,-32.65 444.37,-38.01 445.72,-31.14"/>
</g>
<!-- [root] module.servers.data.aws_ami.ubuntu (expand)&#45;&gt;[root] module.servers (expand) -->
<g id="edge14" class="edge">
<title>[root] module.servers.data.aws_ami.ubuntu (expand)&#45;&gt;[root] module.servers (expand)</title>
<path fill="none" stroke="black" d="M768.06,-71.88C794.94,-61.92 828.95,-49.32 857.03,-38.92"/>
<polygon fill="black" stroke="black" points="858.53,-42.1 866.69,-35.35 856.1,-35.54 858.53,-42.1"/>
</g>
<!-- [root] output.ip_address -->
<g id="node6" class="node">
<title>[root] output.ip_address</title>
<polygon fill="none" stroke="black" points="1522.32,-324 1383.32,-324 1383.32,-288 1528.32,-288 1528.32,-318 1522.32,-324"/>
<polyline fill="none" stroke="black" points="1522.32,-324 1522.32,-318 "/>
<polyline fill="none" stroke="black" points="1528.32,-318 1522.32,-318 "/>
<text text-anchor="middle" x="1455.82" y="-302.3" font-family="Times,serif" font-size="14.00">output.ip_address</text>
</g>
<!-- [root] module.servers.output.ip_address (expand) -->
<g id="node10" class="node">
<title>[root] module.servers.output.ip_address (expand)</title>
<ellipse fill="none" stroke="black" cx="1534.82" cy="-234" rx="241.26" ry="18"/>
<text text-anchor="middle" x="1534.82" y="-230.3" font-family="Times,serif" font-size="14.00">[root] module.servers.output.ip_address (expand)</text>
</g>
<!-- [root] output.ip_address&#45;&gt;[root] module.servers.output.ip_address (expand) -->
<g id="edge19" class="edge">
<title>[root] output.ip_address&#45;&gt;[root] module.servers.output.ip_address (expand)</title>
<path fill="none" stroke="black" d="M1475.35,-287.7C1485.21,-278.97 1497.31,-268.24 1508.02,-258.75"/>
<polygon fill="black" stroke="black" points="1510.36,-261.36 1515.52,-252.1 1505.72,-256.12 1510.36,-261.36"/>
</g>
<!-- [root] meta.count&#45;boundary (EachMode fixup) -->
<g id="node8" class="node">
<title>[root] meta.count&#45;boundary (EachMode fixup)</title>
<ellipse fill="none" stroke="black" cx="1135.82" cy="-378" rx="222.86" ry="18"/>
<text text-anchor="middle" x="1135.82" y="-374.3" font-family="Times,serif" font-size="14.00">[root] meta.count&#45;boundary (EachMode fixup)</text>
</g>
<!-- [root] meta.count&#45;boundary (EachMode fixup)&#45;&gt;[root] output.ip_address -->
<g id="edge2" class="edge">
<title>[root] meta.count&#45;boundary (EachMode fixup)&#45;&gt;[root] output.ip_address</title>
<path fill="none" stroke="black" d="M1209.24,-360.94C1258.19,-350.23 1322.63,-336.14 1373.35,-325.04"/>
<polygon fill="black" stroke="black" points="1374.28,-328.42 1383.3,-322.86 1372.79,-321.58 1374.28,-328.42"/>
</g>
<!-- [root] module.servers (close) -->
<g id="node9" class="node">
<title>[root] module.servers (close)</title>
<ellipse fill="none" stroke="black" cx="1135.82" cy="-306" rx="144.07" ry="18"/>
<text text-anchor="middle" x="1135.82" y="-302.3" font-family="Times,serif" font-size="14.00">[root] module.servers (close)</text>
</g>
<!-- [root] meta.count&#45;boundary (EachMode fixup)&#45;&gt;[root] module.servers (close) -->
<g id="edge1" class="edge">
<title>[root] meta.count&#45;boundary (EachMode fixup)&#45;&gt;[root] module.servers (close)</title>
<path fill="none" stroke="black" d="M1135.82,-359.7C1135.82,-351.98 1135.82,-342.71 1135.82,-334.11"/>
<polygon fill="black" stroke="black" points="1139.32,-334.1 1135.82,-324.1 1132.32,-334.1 1139.32,-334.1"/>
</g>
<!-- [root] module.servers (close)&#45;&gt;[root] module.servers.aws_dynamodb_table.dynamo&#45;terraform&#45;state&#45;lock (expand) -->
<g id="edge3" class="edge">
<title>[root] module.servers (close)&#45;&gt;[root] module.servers.aws_dynamodb_table.dynamo&#45;terraform&#45;state&#45;lock (expand)</title>
<path fill="none" stroke="black" d="M1121.59,-287.95C1102.81,-266.82 1067.57,-231.68 1028.82,-216 1018.23,-211.71 779.71,-194.27 583.81,-180.56"/>
<polygon fill="black" stroke="black" points="583.85,-177.05 573.63,-179.84 583.37,-184.03 583.85,-177.05"/>
</g>
<!-- [root] module.servers (close)&#45;&gt;[root] module.servers.aws_eip.ip (expand) -->
<g id="edge4" class="edge">
<title>[root] module.servers (close)&#45;&gt;[root] module.servers.aws_eip.ip (expand)</title>
<path fill="none" stroke="black" d="M1085.86,-289.03C1054.37,-278.97 1013.46,-265.89 979.77,-255.12"/>
<polygon fill="black" stroke="black" points="980.61,-251.71 970.02,-252 978.48,-258.38 980.61,-251.71"/>
</g>
<!-- [root] module.servers (close)&#45;&gt;[root] module.servers.aws_instance.web2 (expand) -->
<g id="edge5" class="edge">
<title>[root] module.servers (close)&#45;&gt;[root] module.servers.aws_instance.web2 (expand)</title>
<path fill="none" stroke="black" d="M1046.48,-291.83C973.08,-281.02 868.26,-265.57 786.42,-253.51"/>
<polygon fill="black" stroke="black" points="786.7,-250.01 776.3,-252.02 785.68,-256.94 786.7,-250.01"/>
</g>
<!-- [root] module.servers (close)&#45;&gt;[root] module.servers.output.ip_address (expand) -->
<g id="edge6" class="edge">
<title>[root] module.servers (close)&#45;&gt;[root] module.servers.output.ip_address (expand)</title>
<path fill="none" stroke="black" d="M1216.09,-290.92C1279.08,-279.87 1367.11,-264.42 1434.71,-252.56"/>
<polygon fill="black" stroke="black" points="1435.71,-255.94 1444.95,-250.77 1434.5,-249.05 1435.71,-255.94"/>
</g>
<!-- [root] module.servers.var.image_id (expand) -->
<g id="node11" class="node">
<title>[root] module.servers.var.image_id (expand)</title>
<ellipse fill="none" stroke="black" cx="1247.82" cy="-90" rx="215.56" ry="18"/>
<text text-anchor="middle" x="1247.82" y="-86.3" font-family="Times,serif" font-size="14.00">[root] module.servers.var.image_id (expand)</text>
</g>
<!-- [root] module.servers (close)&#45;&gt;[root] module.servers.var.image_id (expand) -->
<g id="edge7" class="edge">
<title>[root] module.servers (close)&#45;&gt;[root] module.servers.var.image_id (expand)</title>
<path fill="none" stroke="black" d="M1173.01,-288.55C1212.05,-268.99 1271.23,-232.28 1296.82,-180 1303.86,-165.63 1302.66,-158.9 1296.82,-144 1292.63,-133.28 1285.13,-123.43 1277.25,-115.2"/>
<polygon fill="black" stroke="black" points="1279.58,-112.59 1269.98,-108.13 1274.7,-117.61 1279.58,-112.59"/>
</g>
<!-- [root] module.servers.var.servers (expand) -->
<g id="node12" class="node">
<title>[root] module.servers.var.servers (expand)</title>
<ellipse fill="none" stroke="black" cx="1078.82" cy="-162" rx="209.06" ry="18"/>
<text text-anchor="middle" x="1078.82" y="-158.3" font-family="Times,serif" font-size="14.00">[root] module.servers.var.servers (expand)</text>
</g>
<!-- [root] module.servers (close)&#45;&gt;[root] module.servers.var.servers (expand) -->
<g id="edge8" class="edge">
<title>[root] module.servers (close)&#45;&gt;[root] module.servers.var.servers (expand)</title>
<path fill="none" stroke="black" d="M1128.95,-287.87C1119.15,-263.46 1101.07,-218.43 1089.52,-189.64"/>
<polygon fill="black" stroke="black" points="1092.7,-188.17 1085.72,-180.19 1086.2,-190.77 1092.7,-188.17"/>
</g>
<!-- [root] module.servers.output.ip_address (expand)&#45;&gt;[root] module.servers.aws_instance.web (expand) -->
<g id="edge16" class="edge">
<title>[root] module.servers.output.ip_address (expand)&#45;&gt;[root] module.servers.aws_instance.web (expand)</title>
<path fill="none" stroke="black" d="M1361.48,-221.44C1227.77,-212.03 1037.95,-197.61 861.99,-180.09"/>
<polygon fill="black" stroke="black" points="862.32,-176.61 852.03,-179.1 861.63,-183.58 862.32,-176.61"/>
</g>
<!-- [root] module.servers.var.image_id (expand)&#45;&gt;[root] module.servers (expand) -->
<g id="edge17" class="edge">
<title>[root] module.servers.var.image_id (expand)&#45;&gt;[root] module.servers (expand)</title>
<path fill="none" stroke="black" d="M1171.35,-73.12C1118.15,-62.07 1047.3,-47.35 992.91,-36.05"/>
<polygon fill="black" stroke="black" points="993.46,-32.59 982.95,-33.98 992.03,-39.44 993.46,-32.59"/>
</g>
<!-- [root] module.servers.var.servers (expand)&#45;&gt;[root] module.servers (expand) -->
<g id="edge18" class="edge">
<title>[root] module.servers.var.servers (expand)&#45;&gt;[root] module.servers (expand)</title>
<path fill="none" stroke="black" d="M1058.56,-143.87C1028.59,-118.54 972.34,-71 938.57,-42.45"/>
<polygon fill="black" stroke="black" points="940.8,-39.75 930.9,-35.97 936.28,-45.1 940.8,-39.75"/>
</g>
<!-- [root] provider[&quot;registry.terraform.io/hashicorp/aws&quot;].east2 (close) -->
<g id="node14" class="node">
<title>[root] provider[&quot;registry.terraform.io/hashicorp/aws&quot;].east2 (close)</title>
<ellipse fill="none" stroke="black" cx="652.82" cy="-306" rx="320.34" ry="18"/>
<text text-anchor="middle" x="652.82" y="-302.3" font-family="Times,serif" font-size="14.00">[root] provider[&quot;registry.terraform.io/hashicorp/aws&quot;].east2 (close)</text>
</g>
<!-- [root] provider[&quot;registry.terraform.io/hashicorp/aws&quot;].east2 (close)&#45;&gt;[root] module.servers.aws_dynamodb_table.dynamo&#45;terraform&#45;state&#45;lock (expand) -->
<g id="edge20" class="edge">
<title>[root] provider[&quot;registry.terraform.io/hashicorp/aws&quot;].east2 (close)&#45;&gt;[root] module.servers.aws_dynamodb_table.dynamo&#45;terraform&#45;state&#45;lock (expand)</title>
<path fill="none" stroke="black" d="M607.18,-288.1C580.63,-278.06 546.63,-264.81 516.82,-252 466.45,-230.35 409.65,-203.23 371.59,-184.65"/>
<polygon fill="black" stroke="black" points="372.86,-181.38 362.33,-180.12 369.78,-187.66 372.86,-181.38"/>
</g>
<!-- [root] provider[&quot;registry.terraform.io/hashicorp/aws&quot;].east2 (close)&#45;&gt;[root] module.servers.aws_eip.ip (expand) -->
<g id="edge21" class="edge">
<title>[root] provider[&quot;registry.terraform.io/hashicorp/aws&quot;].east2 (close)&#45;&gt;[root] module.servers.aws_eip.ip (expand)</title>
<path fill="none" stroke="black" d="M715.72,-288.32C753.91,-278.2 802.83,-265.23 842.86,-254.61"/>
<polygon fill="black" stroke="black" points="843.8,-257.98 852.57,-252.04 842.01,-251.22 843.8,-257.98"/>
</g>
<!-- [root] provider[&quot;registry.terraform.io/hashicorp/aws&quot;].east2 (close)&#45;&gt;[root] module.servers.aws_instance.web2 (expand) -->
<g id="edge22" class="edge">
<title>[root] provider[&quot;registry.terraform.io/hashicorp/aws&quot;].east2 (close)&#45;&gt;[root] module.servers.aws_instance.web2 (expand)</title>
<path fill="none" stroke="black" d="M654.8,-287.7C655.68,-279.98 656.74,-270.71 657.73,-262.11"/>
<polygon fill="black" stroke="black" points="661.21,-262.44 658.87,-252.1 654.26,-261.64 661.21,-262.44"/>
</g>
<!-- [root] root -->
<g id="node15" class="node">
<title>[root] root</title>
<ellipse fill="none" stroke="black" cx="893.82" cy="-450" rx="58.49" ry="18"/>
<text text-anchor="middle" x="893.82" y="-446.3" font-family="Times,serif" font-size="14.00">[root] root</text>
</g>
<!-- [root] root&#45;&gt;[root] meta.count&#45;boundary (EachMode fixup) -->
<g id="edge23" class="edge">
<title>[root] root&#45;&gt;[root] meta.count&#45;boundary (EachMode fixup)</title>
<path fill="none" stroke="black" d="M934.88,-437.13C971.53,-426.52 1025.91,-410.79 1068.85,-398.37"/>
<polygon fill="black" stroke="black" points="1070.03,-401.67 1078.67,-395.53 1068.09,-394.95 1070.03,-401.67"/>
</g>
<!-- [root] root&#45;&gt;[root] provider[&quot;registry.terraform.io/hashicorp/aws&quot;].east2 (close) -->
<g id="edge24" class="edge">
<title>[root] root&#45;&gt;[root] provider[&quot;registry.terraform.io/hashicorp/aws&quot;].east2 (close)</title>
<path fill="none" stroke="black" d="M868.03,-433.8C825.39,-408.68 740.02,-358.37 690.58,-329.24"/>
<polygon fill="black" stroke="black" points="692.17,-326.12 681.78,-324.06 688.62,-332.15 692.17,-326.12"/>
</g>
</g>
</svg>
